<svg xmlns="http://www.w3.org/2000/svg" fill="none" height="607" viewBox="0 0 483 607" width="483"><path d="m241.5 606.607c-133.377 0-241.49996948-5.973-241.49996948-13.342 0-7.368 108.12296948-13.342 241.49996948-13.342s241.5 5.974 241.5 13.342c0 7.369-108.123 13.342-241.5 13.342z" fill="#e0e0e0"></path><path d="m161.094 50.8959h-128.9035l.9883-1.2707c.2824-.353 7.4829-9.1066 22.3075-9.1066 7.9771 0 10.5184 1.3413 13.0598 2.6826 2.4002 1.2707 4.7298 2.5414 12.2127 2.5414 6.1416 0 10.3066-5.224 15.1069-11.2244 6.4243-8.0476 13.6953-17.0836 28.0253-17.0836 5.789 0 11.295 1.6942 16.449 5.0827 4.094 2.6826 7.906 6.424 11.436 11.1538 5.93 7.977 8.753 15.8129 8.894 16.1659z" fill="#eee"></path><path d="m173.66 143.585c-48.851 23.013-123.1859 77.582-97.984 188.272l55.133 8.33-5.718-80.547c-.282-3.671 1.977-6.989 5.436-8.118 15.813-5.153 58.028-24.919 58.946-88.524.211-13.201-3.813-25.061-15.813-19.413z" fill="#307fe2"></path><path d="m71.0168 301.079c8.8948-9.319 21.7428-14.613 35.5792-13.342 7.836.706 15.036 3.529 21.037 7.765l3.176 44.686-55.133-8.331c-2.4708-10.8-3.9533-21.036-4.6592-30.778z" fill="#e10098"></path><path d="m85.7706 370.26c-6.2122-6.071-16.5189-19.131-11.7185-35.861 2.1884-7.483 8.1182-11.648 15.1776-13.837 16.8013-5.153 34.5203 2.118 43.6263 16.378 6.848 6.636 28.167 28.59 8.26 26.049 1.694 15.742-2.612 32.402-22.096 43.697 0 0-6.142 2.612-5.718-4.376-8.401 7.2-17.7189 12.353-15.5306-2.542-8.33 6.777-17.7189 11.366-11.5067-8.824-9.0359 3.953-18.3542 5.224-3.5296-16.519 1.0589-1.553 2.0472-2.894 3.0355-4.165z" fill="#307fe2"></path><path d="m99.9601 398.851c.2119 0 .4239-.071.5649-.212 6.918-5.083 11.648-15.884 11.86-16.307.211-.494 0-1.13-.495-1.342-.494-.211-1.129 0-1.341.495-.07.141-4.73 10.73-11.2242 15.46-.4235.353-.5647.917-.2118 1.411.2118.353.5648.495.8471.495z" fill="#22326e"></path><path d="m115.631 401.039c.212 0 .424-.071.565-.212 6.918-5.082 11.648-15.883 11.86-16.307.212-.494 0-1.129-.494-1.341s-1.13 0-1.342.494c-.07.141-4.729 10.73-11.224 15.46-.423.353-.565.918-.212 1.412.283.353.565.494.847.494z" fill="#22326e"></path><path d="m87.394 390.662c.2118 0 .4236-.07.5648-.212 3.8826-2.753 9.3889-10.659 9.6713-11.012.2823-.424.2118-1.059-.2824-1.412-.4235-.282-1.0589-.212-1.4119.282-.0705.071-5.5768 7.977-9.1771 10.519-.4236.353-.5648.917-.2118 1.412.2118.282.4942.423.8471.423z" fill="#22326e"></path><path d="m141.046 364.048h.07c.565-.071.988-.565.918-1.059 0-.353-.777-8.471-3.671-15.389-.212-.494-.777-.777-1.341-.565-.494.212-.777.777-.565 1.341 2.824 6.636 3.53 14.684 3.53 14.754.141.565.564.918 1.059.918z" fill="#22326e"></path><path d="m438.455 131.019s35.014 134.198-63.887 130.174c0 0-49.698-3.812-87.536-37.979l4.024-78.923 81.535 50.474c3.036 1.835 6.989 0 7.413-3.53l8.542-66.64z" fill="#307fe2"></path><path d="m413.394 185.871c-12.424 0-23.507-5.012-31.061-12.848l6.212-48.357 49.981 6.424s3.035 11.719 4.8 28.167c1.129 10.518-5.083 20.613-15.107 24.143-4.589 1.553-9.601 2.471-14.825 2.471z" fill="#e10098"></path><path d="m163.918 334.964c-16.096 62.969 32.967 123.679 97.913 121.138l76.029-2.965c9.177-.353 16.731 7.059 16.589 16.166-.141 9.248-8.047 16.378-17.224 15.672l-64.099-5.859c-37.697-3.46-72.076 21.601-80.336 58.521 23.084-22.166 55.416-31.767 86.83-25.837l66.358 12.566c47.298 8.965 91.207-26.896 91.983-74.97.706-45.321-37.485-81.677-82.735-78.641-17.648 1.2-50.827-4.73-51.533-30.497-.353-11.648-9.954-20.966-21.602-21.46l-93.607-2.047c-11.506-.494-21.742 7.13-24.566 18.213z" fill="#74d2e7"></path><path d="m201.544 327.904h60.286c16.378 0 39.674-12.071 34.309-28.025-19.837-58.875 24.848-123.962 5.506-147.258-23.719-28.52-116.197-28.52-139.916 0-19.343 23.225 18.778 105.254 5.506 147.258-5.083 16.095 18.001 28.025 34.309 28.025z" fill="#307fe2"></path><path d="m386.075 108.641s.565-6.494 6.636-20.4719c6.071-13.9775 20.472-33.2494 23.79-30.4257 3.317 2.8237 2.894 11.2243 1.059 20.5427 15.318-12.3539 40.661-31.5553 45.815-27.8844 5.647 4.0238-.353 12.7774-9.601 21.8839 1.059.4236 2.047 1.2001 2.894 2.3296 1.412 1.906 1.624 4.518.989 7.6241 3.035-.8471 5.788-.2118 7.835 2.4708 1.836 2.4001 1.695 6.071.142 10.3772 2.682-.4942 5.012.2824 6.847 2.7531 7.554 9.9536-18.778 41.0856-33.461 51.6036 0 0-.071 0-.071.071-1.976 1.482-4.165 2.682-6.635 3.529-12.496 4.377-26.12-2.259-30.497-14.754-.141-.494-.282-.988-.423-1.482-6.636-2.33-12.213-7.554-14.684-14.683-1.553-4.448-1.694-9.107-.635-13.484z" fill="#307fe2"></path><path d="m431.89 107.441h.071c.565-.071.988-.494.918-1.059-1.271-15.3894-12.637-18.5661-16.378-19.2014l1.977-8.683c.141-.5648-.212-1.0589-.777-1.2001s-1.059.2118-1.2.7765l-2.259 9.7419c-.071.2824 0 .5648.212.8471.212.2118.423.353.776.4236.565 0 14.331.9177 15.672 17.5074.071.423.494.847.988.847z" fill="#22326e"></path><path d="m296.209 299.878s-49.698 34.238-128.621 1.271c0 0-9.389 16.801-8.754 34.732.283 7.201 4.589 13.695 11.084 16.872 19.907 9.812 68.263 29.72 125.303-.635 6.777-3.601 10.801-10.872 10.306-18.496-.494-7.412-1.482-18.213-9.318-33.744z" fill="#e10098"></path><path d="m162.788 327.622c.141-.565.706-.848 1.271-.706 28.096 8.188 68.616 15.248 101.936 2.329 19.837-7.765 27.814-19.131 27.885-19.272.282-.423.918-.565 1.412-.282.423.282.565.918.282 1.412-.07.141-2.118 3.035-6.636 6.988-4.165 3.601-11.365 8.754-22.025 12.919-13.554 5.295-28.308 7.342-42.921 7.342-9.459 0-18.848-.847-27.884-2.259 27.814 12.707 53.157 14.048 70.029 12.777 19.625-1.482 32.261-6.706 32.402-6.777.494-.212 1.13 0 1.341.565.212.565 0 1.129-.564 1.341-.142.071-12.99 5.365-32.897 6.918-3.177.212-6.706.424-10.448.424-17.86 0-41.509-3.389-66.781-16.378-9.177-1.694-17.86-3.882-25.555-6.141-.706-.142-.988-.706-.847-1.2z" fill="#22326e"></path><path d="m199.002 21.5289c-1.976-3.6003.777-10.2361 7.554-15.81293 6.777-5.576877 13.695-7.20052 16.942-4.30619 0 0 8.895 7.4123 11.366 10.44782 2.965 3.6003-.847 11.6479-8.542 17.9307s-16.307 8.5418-19.272 4.9416c-2.471-3.1062-8.048-13.201-8.048-13.201z" fill="#e10098"></path><path d="m234.864 160.739c-13.272 0-24.002-7.483-24.002-22.096v-61.0629h47.933v61.0629c0 14.543-10.73 22.096-23.931 22.096z" fill="#307fe2"></path><path d="m262.748 119.795-51.886-9.036v-55.3452c0-20.2603 17.154-36.6379 38.403-36.6379 21.178 0 38.403 16.3776 38.403 36.6379v43.6268c-.071 15.1774-10.73 23.4374-24.92 20.7544z" fill="#307fe2"></path><path d="m260.489 99.7465c-2.471.1411-7.2 1.6945-3.953 6.9885 7.412 12.001 9.389 5.718 9.107-.494-.353-6.142-2.612-6.6357-5.154-6.4945z" fill="#22326e"></path><path d="m242.801 65.32c-2.037-.3417-3.412-2.2708-3.071-4.3086.342-2.0379 2.271-3.4128 4.309-3.071s3.413 2.2709 3.071 4.3087-2.271 3.4127-4.309 3.0709z" fill="#22326e"></path><path d="m279.902 60.567c.071 2.0472-1.553 3.812-3.6 3.8826s-3.812-1.553-3.883-3.6002c-.07-2.0472 1.553-3.8121 3.601-3.8827 2.117-.1412 3.812 1.5531 3.882 3.6003z" fill="#22326e"></path><path d="m267.619 87.8867c-.635 5.0827-5.224 9.1066-10.871 9.1066-5.577 0-10.236-3.9533-10.872-9.1066z" fill="#fff"></path><path d="m250.959 78.6389c5.224-1.4119 9.954-1.4824 12.284-.4235 1.553-1.3413 5.435-1.2001 9.6.5647 5.012 2.1178 8.542 5.7887 7.907 8.1182-.636 2.3296-5.224 2.5414-10.236.4236-3.106-1.3413-5.577-3.1767-6.918-5.0121-1.836 1.906-5.577 3.8826-10.166 5.0827-6.918 1.906-13.06 1.4119-13.695-.9883-.776-2.4002 4.306-5.9299 11.224-7.7653z" fill="#22326e"></path><path d="m263.101 78.7096c3.883 0 6.354-1.0589 7.554-3.1061 3.247-5.5769-5.154-15.8129-6.142-16.9424-.494-.5647-1.271-.6353-1.835-.1412-.565.4942-.636 1.2707-.142 1.8354 3.177 3.8121 7.624 10.942 5.86 13.9069-1.059 1.9061-4.942 2.3296-10.872 1.2001-.706-.1412-1.412.353-1.553 1.0589-.141.706.353 1.4119 1.059 1.5531 2.33.4235 4.306.6353 6.071.6353z" fill="#22326e"></path><path d="m249.265 12.9871c12.072 3.8827 34.238 3.6709 34.238 3.6709-6.565 22.4487-38.897 14.0481-43.98 12.5656v6.9182c0 7.5535-5.647 13.8363-12.918 14.8246v15.8835h-19.343v-26.3313c0-26.9667 26.12-32.61419 42.003-27.5315z" fill="#141f47"></path><path d="m203.658 84.3475c-5.679-5.679-5.679-14.8866 0-20.5656 5.679-5.6791 14.886-5.6791 20.565-.0001 5.679 5.6791 5.679 14.8867 0 20.5657-5.679 5.6791-14.886 5.6791-20.565 0z" fill="#307fe2"></path><path d="m214.391 82.4512c.706 0 1.342-.5648 1.342-1.3413 0-.7059-.565-1.3412-1.342-1.3412-.564 0-5.788-.2118-5.788-5.7887 0-5.7181 5.577-5.7887 5.788-5.7887.706 0 1.342-.5647 1.342-1.3412 0-.7766-.565-1.3413-1.342-1.3413-2.894 0-8.4 1.7648-8.4 8.4006 0 6.777 5.506 8.5418 8.4 8.5418z" fill="#22326e"></path><path d="m258.795 126.854-24.143-11.93 24.143 4.235z" fill="#22326e"></path><path d="m200.414 28.0236c.495 0 .918-.353.989-.9177l.776-7.4829 7.554.7765c.565.0706 1.059-.353 1.129-.9177l.777-7.4829 7.483.7765c.564.0706 1.059-.3529 1.129-.9177l.777-7.55349 7.553.77653c.565.07059 1.059-.35297 1.13-.91771.07-.56475-.353-1.05891-.918-1.1295l-8.612-.84712c-.565-.0706-1.059.35297-1.13.91771l-.776 7.55348-7.483-.77651c-.565-.07059-1.059.35301-1.13.91771l-.776 7.4829-7.554-.7765c-.282 0-.494.0706-.706.2118-.212.1411-.353.4235-.353.7059l-.847 8.5418c-.07.5647.353 1.0589.918 1.1295 0-.0706.07-.0706.07-.0706z" fill="#22326e"></path><path d="m292.186 248.698c.564 0 1.059-.423 1.129-.988l8.966-53.792c.07-.636-.353-1.271-.989-1.341-.635-.071-1.27.353-1.341.988l-8.965 53.792c-.071.635.353 1.271.988 1.341z" fill="#22326e"></path><path d="m121.491 587.97c10.73 0 15.954-1.059 18.496-2.047 1.412-.565 1.482-2.471.212-3.247l-18.708-10.872-18.707 10.872c-1.271.776-1.2 2.682.212 3.247 2.541 1.059 7.765 2.047 18.495 2.047z" fill="#22326e"></path><path d="m194.697 540.037h-107.726c-.7059 0-1.3412.07-1.9766.211-1.0589-2.188-4.7298-8.683-11.4361-11.153-4.2356-1.624-8.8242-1.271-13.554.988-5.4357 2.612-10.0948 8.824-7.4828 16.448 2.7531 8.118 11.2949 10.236 18.0718 8.754.6354-.141 1.2707-.283 1.8355-.424 1.0589-.282 2.1178-.494 3.0355-.635 3.9532-.565 6.4946 1.906 7.4829 4.235 1.0589 2.401 1.0589 5.789-1.9766 8.189-1.1295.918-1.3413 2.542-.4236 3.742.4942.635 1.2707.988 2.0472.988.5648 0 1.1295-.212 1.6237-.565 2.1884-1.765 3.6708-4.024 4.2356-6.565 6.7063 6.283 17.1545 11.295 33.5315 11.295 39.886 0 35.791-21.249 73.135-32.614 1.624-.494 1.271-2.894-.423-2.894zm-120.0092 8.965c-1.1295.141-2.259.423-3.4591.706-.5647.141-1.1295.282-1.7648.423-6.9182 1.483-10.7302-1.906-11.9303-5.294-1.0589-3.036-.4236-7.483 4.8003-9.954 3.3885-1.623 6.4946-1.906 9.3889-.847 5.7181 2.118 8.7536 8.965 8.7536 9.036s.0706.141.0706.141c-1.2707 1.624-1.906 3.742-1.553 5.93-1.3413-.282-2.8238-.353-4.3062-.141z" fill="#e10098"></path><path d="m121.491 546.814c14.472 0 21.531-1.411 24.99-2.753 1.906-.776 2.047-3.318.282-4.376l-23.437-13.625c-1.129-.635-2.47-.635-3.6 0l-23.4369 13.625c-1.7648.988-1.553 3.6.2824 4.306 3.3885 1.412 10.4475 2.823 24.9195 2.823z" fill="#e10098"></path><g fill="#22326e"><path d="m147.399 538.554-22.66-13.201c2.541-1.2 4.376-3.812 4.376-6.847 0-4.165-3.388-7.624-7.624-7.624-4.165 0-7.624 3.388-7.624 7.624 0 3.035 1.765 5.647 4.377 6.847l-22.6605 13.201c-1.2707.706-1.9767 2.048-1.8355 3.53.0706 1.412.9883 2.683 2.3296 3.177 4.8004 1.906 13.3424 2.894 25.4844 2.894 12.071 0 20.684-.988 25.484-2.894 1.341-.565 2.259-1.765 2.33-3.177 0-1.482-.706-2.824-1.977-3.53zm-1.412 4.236c-3.106 1.2-9.812 2.683-24.496 2.683-14.683 0-21.39-1.483-24.4957-2.683-.5647-.212-.6353-.706-.7059-.918 0-.141 0-.706.5648-1.059l23.4368-13.624c.353-.212.777-.282 1.13-.282s.776.07 1.129.282l23.437 13.624c.565.353.565.848.565 1.059.07.212 0 .706-.565.918z"></path><path d="m88.9475 458.713h-8.8242c-.6353 0-1.2001.495-1.2001 1.2 0 .706.4942 1.201 1.2001 1.201h8.8242c.6353 0 1.2001-.495 1.2001-1.201 0-.705-.5648-1.2-1.2001-1.2z"></path><path d="m107.231 458.713h-8.8241c-.6353 0-1.2001.495-1.2001 1.2 0 .706.4942 1.201 1.2001 1.201h8.8241c.635 0 1.2-.495 1.2-1.201 0-.705-.494-1.2-1.2-1.2z"></path><path d="m93.7479 463.584c-.6353 0-1.2001.495-1.2001 1.201v8.824c0 .635.4942 1.2 1.2001 1.2.6353 0 1.2001-.494 1.2001-1.2v-8.824c-.0706-.706-.5648-1.201-1.2001-1.201z"></path><path d="m93.7479 445.23c-.6353 0-1.2001.495-1.2001 1.201v8.824c0 .635.4942 1.2 1.2001 1.2.6353 0 1.2001-.494 1.2001-1.2v-8.824c-.0706-.636-.5648-1.201-1.2001-1.201z"></path><path d="m404.571 440.642h-8.825c-.635 0-1.2.494-1.2 1.2s.495 1.2 1.2 1.2h8.825c.635 0 1.2-.494 1.2-1.2s-.565-1.2-1.2-1.2z"></path><path d="m422.854 440.642h-8.824c-.635 0-1.2.494-1.2 1.2s.494 1.2 1.2 1.2h8.824c.636 0 1.2-.494 1.2-1.2s-.494-1.2-1.2-1.2z"></path><path d="m409.371 445.442c-.636 0-1.2.494-1.2 1.2v8.824c0 .636.494 1.2 1.2 1.2.635 0 1.2-.494 1.2-1.2v-8.824c-.071-.635-.565-1.2-1.2-1.2z"></path><path d="m409.371 427.158c-.636 0-1.2.494-1.2 1.2v8.824c0 .636.494 1.201 1.2 1.201.635 0 1.2-.495 1.2-1.201v-8.824c-.071-.635-.565-1.2-1.2-1.2z"></path><path d="m162.435 494.082h4.448c.635 0 1.2.494 1.2 1.2s-.494 1.2-1.2 1.2h-4.448c-.635 0-1.2-.494-1.2-1.2s.565-1.2 1.2-1.2z"></path><path d="m171.683 494.082h4.448c.635 0 1.2.494 1.2 1.2s-.495 1.2-1.2 1.2h-4.448c-.635 0-1.2-.494-1.2-1.2s.565-1.2 1.2-1.2z"></path><path d="m169.283 496.552c.635 0 1.2.494 1.2 1.2v4.448c0 .635-.494 1.2-1.2 1.2-.635 0-1.2-.494-1.2-1.2v-4.448c.07-.635.565-1.2 1.2-1.2z"></path><path d="m169.283 487.305c.635 0 1.2.494 1.2 1.2v4.447c0 .635-.494 1.2-1.2 1.2-.635 0-1.2-.494-1.2-1.2v-4.447c.07-.706.565-1.2 1.2-1.2z"></path></g><path d="m251.1 550.626c-2.823 0-5.153-2.329-5.153-5.153s2.33-5.153 5.153-5.153c2.824 0 5.154 2.329 5.154 5.153s-2.33 5.153-5.154 5.153zm0-7.977c-1.553 0-2.823 1.271-2.823 2.824s1.27 2.824 2.823 2.824 2.824-1.271 2.824-2.824-1.271-2.824-2.824-2.824z" fill="#e10098"></path><path d="m380.851 341.952c-2.824 0-5.153-2.329-5.153-5.153s2.329-5.153 5.153-5.153 5.153 2.329 5.153 5.153c.071 2.824-2.259 5.153-5.153 5.153zm0-8.047c-1.553 0-2.824 1.27-2.824 2.823s1.271 2.824 2.824 2.824 2.824-1.271 2.824-2.824-1.2-2.823-2.824-2.823z" fill="#e10098"></path><path d="m168.083 440.783c-1.365 0-2.471-1.106-2.471-2.471 0-1.364 1.106-2.471 2.471-2.471 1.364 0 2.47 1.107 2.47 2.471 0 1.365-1.106 2.471-2.47 2.471z" fill="#22326e"></path><path d="m471.846 399.415c-1.365 0-2.471-1.106-2.471-2.471 0-1.364 1.106-2.47 2.471-2.47 1.364 0 2.471 1.106 2.471 2.47 0 1.365-1.107 2.471-2.471 2.471z" fill="#22326e"></path><path d="m458.362 119.018c1.977 0 4.024-.564 5.295-.917.353-.071.706-.212.847-.212.565 0 .988-.494.918-1.059 0-.565-.495-.988-1.059-.988-.283 0-.565.07-1.271.282-1.765.494-5.859 1.694-7.483 0-1.059-1.059-1.059-3.459 0-6.777.071-.282.071-.635-.141-.918-.212-.282-.494-.423-.847-.353-1.695.142-6.354-.141-7.907-2.611-1.059-1.765-.565-4.448 1.483-8.0481.211-.353.141-.7765-.071-1.1295-.282-.353-.706-.4236-1.059-.353-2.188.6354-8.118 1.7649-9.812-.7059-1.059-1.6237-1.412-6.2122 8.824-19.3426.353-.4235.282-1.0589-.141-1.4119-.424-.3529-1.059-.2823-1.412.1412-8.542 10.942-11.436 18.0719-8.895 21.7428 2.047 2.9649 6.989 2.6119 9.883 2.0472-1.553 3.3178-1.694 6.0708-.423 8.1178 1.835 2.965 6.071 3.46 8.33 3.53-.918 3.53-.636 5.93.847 7.483.988 1.13 2.541 1.482 4.094 1.482z" fill="#22326e"></path><path d="m171.33 217.92c.494 0 .918-.282 1.059-.706.141-.353 14.118-36.073-6.565-61.487-.424-.494-1.13-.565-1.624-.141s-.565 1.129-.141 1.624c19.836 24.354 6.353 58.804 6.212 59.157-.212.565.07 1.271.635 1.553.141-.071.283 0 .424 0z" fill="#22326e"></path><path d="m235.782 180.646c19.342 0 35.155-19.695 36.073-44.332 3.177.847 6.212 1.835 9.036 2.965.776 4.235 1.129 8.683 1.129 13.271 0 32.967-20.754 59.722-46.309 59.722s-46.309-26.755-46.309-59.722c0-5.577.635-10.942 1.694-16.095 2.753-.777 5.577-1.412 8.471-2.047.283 25.555 16.378 46.238 36.215 46.238z" fill="#e10098"></path><path d="m236.558 190.247c3.53 0 6.424 2.895 6.424 6.424 0 3.53-2.894 6.424-6.424 6.424-3.529 0-6.424-2.894-6.424-6.424 0-3.6 2.895-6.424 6.424-6.424z" fill="#22326e"></path><path d="m217.145 184.741c1.765 0 3.247 1.482 3.247 3.247s-1.482 3.247-3.247 3.247-3.247-1.482-3.247-3.247c0-1.835 1.411-3.247 3.247-3.247z" fill="#22326e"></path><path d="m256.819 184.741c1.765 0 3.247 1.482 3.247 3.247s-1.482 3.248-3.247 3.248-3.248-1.483-3.248-3.248c0-1.835 1.483-3.247 3.248-3.247z" fill="#22326e"></path></svg>